# xmcd
#
# Track frame offsets:
#	151
#	17734
#	27964
#	39370
#	53570
#	65868
#	79039
#	93337
#	109903
#	123077
#	133362
#	149960
#	163601
#	178434
#	189957
#
# Disc length: 2722 seconds
#
# Revision: 0
# Processed by: cddbd v1.5.2PL0 Copyright (c) Steve Scherf et al.
# Submitted via: audiograbber 1.83.01
#
DISCID=d70aa00f
DTITLE=Dicksy Lentz Bänd - Dixiebells
DYEAR=1998
DGENRE=Dixieland - Traditional
TTITLE0=Krëschtdaag Am Schnéi
TTITLE1=O Come All Ye Faithfull
TTITLE2=Sleigh Ride
TTITLE3=Santa Claus Is Coming To Town
TTITLE4=Wonnerschéin Krëschtdaagszäit
TTITLE5=Rudolf The Rednosed Reindeer
TTITLE6=Sidd Frou
TTITLE7=Oh Tannenbaum
TTITLE8=Big Drummer Boy
TTITLE9=Jingle Bells
TTITLE10=The Christmas Song
TTITLE11=Frosty The Snowman
TTITLE12=Winter Wonderland
TTITLE13=Stëll As d'Nuecht
TTITLE14=Mir Wënschen E Schéine Krëschtdaag
EXTD=
EXTT0=
EXTT1=
EXTT2=
EXTT3=
EXTT4=
EXTT5=
EXTT6=
EXTT7=
EXTT8=
EXTT9=
EXTT10=
EXTT11=
EXTT12=
EXTT13=
EXTT14=
PLAYORDER=
